<svg width="377" height="242" viewBox="0 0 377 242" fill="none" xmlns="http://www.w3.org/2000/svg">
<path d="M1 226.755C3 231.595 5.103 236.491 7.274 241.491H369.752C372.355 235.491 375 229.701 376 223.854V119.149C355.5 49 300.146 17.4912 207.079 14.4912H169C78.5 19 20 53.5 1 119.149V226.755Z" fill="url(#paint0_linear_1150_1786)" stroke="black" stroke-miterlimit="10"/>
<path d="M126.494 87.4789C141.628 87.4789 153.897 81.4003 153.897 73.9019C153.897 66.4035 141.628 60.325 126.494 60.325C111.36 60.325 99.0908 66.4035 99.0908 73.9019C99.0908 81.4003 111.36 87.4789 126.494 87.4789Z" fill="url(#paint1_linear_1150_1786)"/>
<path d="M119.035 76.397C119.035 76.397 119.865 76.111 121.44 75.643C123.019 75.188 125.336 74.5029 128.365 73.9279C129.879 73.6409 131.568 73.365 133.441 73.218C135.31 73.11 137.38 72.98 139.634 73.731C140.193 73.931 140.762 74.228 141.277 74.669C141.786 75.107 142.217 75.7629 142.402 76.4249C142.609 77.0679 142.679 77.8029 142.548 78.5319C142.413 79.2609 142.075 79.9409 141.644 80.5059C140.77 81.6399 139.605 82.37 138.427 82.987C137.236 83.595 135.98 84.065 134.688 84.468C133.395 84.87 132.062 85.203 130.698 85.489C130.016 85.632 129.324 85.7609 128.633 85.8829C128.284 85.9399 127.991 86.0109 127.512 86.0549C127.124 86.0899 126.754 86.113 126.382 86.124C123.43 86.196 120.409 85.947 117.319 85.09C115.782 84.651 114.223 84.036 112.764 83.046C111.324 82.065 109.962 80.591 109.343 78.72C109.223 78.355 109.223 78.3729 109.14 78.0029C109.073 77.6989 109.044 77.4569 109.022 77.1859C108.983 76.6539 109.014 76.1129 109.119 75.5969C109.331 74.5629 109.783 73.647 110.314 72.854C111.398 71.275 112.774 70.1089 114.201 69.0869C117.082 67.0799 120.251 65.65 123.573 64.526C125.241 63.976 126.948 63.509 128.755 63.208C130.607 62.891 132.459 62.924 134.235 62.999C137.807 63.19 141.367 63.732 144.888 64.822C146.644 65.379 148.394 66.08 150.063 67.106C151.709 68.114 153.367 69.533 154.331 71.585C154.571 72.091 154.746 72.635 154.871 73.185C154.923 73.477 154.98 73.709 155.017 74.051L155.045 74.406L155.058 74.888C155.05 76.051 154.739 77.186 154.261 78.168C153.283 80.145 151.768 81.5459 150.212 82.6619C147.048 84.8669 143.545 86.069 140.06 86.893C133.052 88.474 125.982 88.3719 119.337 87.3239C116.08 86.7989 112.81 86.1599 109.716 85.1279C108.163 84.6159 106.637 84.028 105.175 83.267C103.718 82.51 102.298 81.589 101.116 80.307C98.5879 77.719 98.3979 73.426 100.158 70.724C100.966 69.337 102.044 68.2289 103.182 67.3109C104.316 66.3749 105.548 65.674 106.765 65.047C109.226 63.851 111.692 63.041 114.07 62.509C115.306 62.253 116.375 62.01 117.551 61.854C118.125 61.771 118.69 61.69 119.247 61.611C119.801 61.555 120.347 61.501 120.884 61.447C125.181 61.038 128.932 61.148 132.001 61.307C135.073 61.473 137.467 61.8109 139.093 62.0419C140.719 62.2849 141.58 62.4619 141.58 62.4619C141.634 62.4709 141.671 62.523 141.663 62.577C141.654 62.63 141.6 62.666 141.547 62.659C141.547 62.659 140.688 62.515 139.06 62.332C137.433 62.152 135.039 61.9319 131.984 61.8389C128.932 61.7639 125.207 61.756 120.982 62.276C116.786 62.801 111.98 63.7349 107.306 66.0889C105.017 67.2869 102.707 68.9369 101.306 71.3679C100.623 72.5849 100.206 73.972 100.414 75.421C100.523 76.859 101.16 78.2339 102.188 79.2999C103.207 80.3739 104.499 81.1989 105.866 81.8779C107.236 82.5639 108.699 83.102 110.199 83.567C113.206 84.497 116.37 85.1149 119.606 85.6129C126.058 86.5929 132.942 86.6369 139.63 85.0809C142.949 84.2809 146.265 83.094 149.085 81.096C150.474 80.095 151.747 78.8579 152.49 77.3209C152.856 76.5549 153.075 75.7199 153.077 74.8759C153.079 74.0259 152.873 73.1939 152.519 72.4249C151.794 70.8849 150.478 69.674 149.017 68.778C147.553 67.865 145.939 67.199 144.295 66.668C140.993 65.621 137.55 65.07 134.131 64.867C132.421 64.784 130.708 64.746 129.039 65.023C127.367 65.291 125.728 65.725 124.13 66.242C120.944 67.295 117.879 68.665 115.195 70.513C113.868 71.447 112.625 72.5119 111.723 73.8159C111.281 74.4679 110.932 75.183 110.774 75.94C110.616 76.7 110.663 77.475 110.911 78.207C111.377 79.687 112.437 80.8919 113.669 81.7659C114.913 82.6409 116.324 83.235 117.749 83.666C120.612 84.515 123.547 84.815 126.355 84.791C127.066 84.782 127.737 84.732 128.427 84.603C129.113 84.496 129.79 84.379 130.458 84.252C131.795 83.996 133.097 83.695 134.351 83.328C135.603 82.961 136.812 82.53 137.93 81.981C139.04 81.431 140.088 80.763 140.826 79.854C141.19 79.4 141.457 78.88 141.573 78.332C141.683 77.782 141.647 77.2139 141.491 76.6859C141.222 75.6009 140.285 74.89 139.32 74.525C137.341 73.8 135.294 73.837 133.473 73.901C131.637 73.994 129.958 74.2189 128.451 74.4619C125.436 74.9579 123.099 75.528 121.513 75.929C119.926 76.336 119.092 76.5889 119.092 76.5889C119.039 76.6059 118.983 76.575 118.967 76.523C118.952 76.471 118.985 76.415 119.035 76.397Z" fill="#E24072"/>
<path d="M264.954 86.4792C282.151 85.5579 295.758 78.5854 295.347 70.9056C294.935 63.2258 280.661 57.7469 263.464 58.6682C246.268 59.5896 232.661 66.5621 233.072 74.2419C233.484 81.9217 247.758 87.4005 264.954 86.4792Z" fill="url(#paint2_linear_1150_1786)"/>
<path d="M257.576 73.3918C257.576 73.3918 258.478 73.1028 260.192 72.6288C261.907 72.1688 264.426 71.4788 267.707 70.8998C269.348 70.6108 271.175 70.3338 273.197 70.1848C275.218 70.0778 277.442 69.9438 279.878 70.7038C280.482 70.9158 281.105 71.2078 281.67 71.6838C281.952 71.9208 282.208 72.2148 282.424 72.5438C282.633 72.8578 282.795 73.3008 282.877 73.5788C283.101 74.3448 283.116 75.1578 282.872 75.9488C282.632 76.7328 282.162 77.3958 281.64 77.9338C280.576 79.0108 279.293 79.6868 277.993 80.2698C276.682 80.8428 275.314 81.2908 273.909 81.6748C272.503 82.0588 271.057 82.3758 269.58 82.6488C268.848 82.7748 268.107 82.9008 267.361 83.0288C266.453 83.1618 265.715 83.1708 264.904 83.1898C261.737 83.2048 258.474 82.9338 255.142 81.9868C253.488 81.4878 251.794 80.8368 250.232 79.6978C248.682 78.5548 247.266 76.9138 246.847 74.6008C246.657 73.4248 246.906 72.1978 247.373 71.2068C247.837 70.1998 248.479 69.3798 249.16 68.6558C250.539 67.2218 252.107 66.1518 253.723 65.2068C256.974 63.3488 260.456 62.0028 264.11 60.9978C265.947 60.5108 267.809 60.1008 269.841 59.9408C271.747 59.8318 273.59 59.7508 275.506 59.7318C279.311 59.7268 283.219 59.8518 287.203 61.0768C289.158 61.7248 291.274 62.7068 292.819 64.6918C293.573 65.6738 294.075 66.8938 294.259 68.0968C294.361 68.6508 294.372 69.4378 294.287 70.0358C294.207 70.6638 294.05 71.2568 293.849 71.8108C293.006 74.0118 291.62 75.6498 290.169 77.0868C288.702 78.5188 287.1 79.7228 285.439 80.7958C282.109 82.9298 278.534 84.5408 274.851 85.7128C271.168 86.8778 267.363 87.5958 263.541 87.7338C261.632 87.7968 259.72 87.7228 257.833 87.4608C256.026 87.1998 254.231 86.9128 252.455 86.5648C248.91 85.8778 245.451 84.9358 242.154 83.6038C240.509 82.9318 238.908 82.1388 237.41 81.1338C235.925 80.1278 234.499 78.8908 233.536 77.1648C233.073 76.3028 232.722 75.3038 232.755 74.1988C232.769 74.0308 232.787 73.8388 232.814 73.6938L232.898 73.3048C232.966 73.0648 233.038 72.8248 233.125 72.6078C233.29 72.1628 233.486 71.7568 233.697 71.3698C234.548 69.8298 235.613 68.5518 236.754 67.4068C239.049 65.1308 241.666 63.4458 244.302 62.1668C246.948 60.8998 249.618 60.0178 252.206 59.4708C253.544 59.2178 254.709 58.9738 255.977 58.8188C256.597 58.7368 257.207 58.6568 257.809 58.5778C258.409 58.5218 258.998 58.4688 259.579 58.4158C264.223 58.0118 268.274 58.1258 271.592 58.2888C274.912 58.4568 277.502 58.7998 279.263 59.0328C281.024 59.2778 281.956 59.4568 281.956 59.4568C282.013 59.4658 282.052 59.5188 282.044 59.5748C282.035 59.6308 281.981 59.6688 281.925 59.6618C281.925 59.6618 280.993 59.5168 279.232 59.3348C277.471 59.1548 274.88 58.9348 271.577 58.8418C268.275 58.7668 264.249 58.7598 259.675 59.2798C255.13 59.8078 249.913 60.7018 244.846 63.2508C242.327 64.5188 239.848 66.1748 237.721 68.3498C236.665 69.4388 235.69 70.6568 234.955 72.0328C234.6 72.7148 234.28 73.4698 234.214 74.2118C234.193 74.9828 234.46 75.7508 234.843 76.4408C235.633 77.8258 236.896 78.9288 238.274 79.8278C239.66 80.7298 241.18 81.4608 242.761 82.0788C245.927 83.3188 249.319 84.1568 252.791 84.8258C256.27 85.4478 259.836 86.1048 263.47 85.9028C267.099 85.7498 270.742 85.0428 274.269 83.9028C277.794 82.7588 281.22 81.1858 284.364 79.1448C285.931 78.1208 287.428 76.9758 288.761 75.6598C290.082 74.3478 291.283 72.8518 291.928 71.1178C292.613 69.3998 292.282 67.3968 291.161 65.9458C290.048 64.4788 288.316 63.5978 286.567 63.0138C283.004 61.8858 279.212 61.7048 275.512 61.6928C273.656 61.6978 271.802 61.7668 269.966 61.8598C268.146 61.9898 266.347 62.3668 264.591 62.8238C261.083 63.7618 257.696 65.0528 254.625 66.7858C253.101 67.6628 251.645 68.6588 250.448 69.8928C249.268 71.0998 248.326 72.7038 248.569 74.3648C248.84 76.0008 249.921 77.4088 251.223 78.3788C252.536 79.3708 254.07 80.0048 255.602 80.4908C258.695 81.4288 261.866 81.7548 264.905 81.7888C265.664 81.7858 266.426 81.7788 267.152 81.6828C267.894 81.5688 268.63 81.4558 269.358 81.3448C270.81 81.1018 272.227 80.8158 273.596 80.4668C274.965 80.1158 276.289 79.7058 277.534 79.1868C278.77 78.6638 279.954 78.0358 280.864 77.1508C281.314 76.7108 281.686 76.1948 281.875 75.6198C282.068 75.0478 282.067 74.4258 281.918 73.8598C281.664 72.6608 280.611 71.9258 279.564 71.5468C277.407 70.8058 275.199 70.8448 273.228 70.9038C271.242 70.9948 269.423 71.2188 267.79 71.4608C264.522 71.9568 261.985 72.5278 260.262 72.9308C258.538 73.3388 257.629 73.5938 257.629 73.5938C257.574 73.6098 257.517 73.5758 257.501 73.5218C257.488 73.4678 257.522 73.4098 257.576 73.3918Z" fill="url(#paint3_linear_1150_1786)"/>
<path d="M171.373 72.9894C182.625 72.9894 191.746 63.1285 191.746 50.9645C191.746 38.8004 182.625 28.9395 171.373 28.9395C160.121 28.9395 151 38.8004 151 50.9645C151 63.1285 160.121 72.9894 171.373 72.9894Z" fill="url(#paint4_linear_1150_1786)"/>
<path d="M171.373 54.0704C177.792 54.0704 182.996 48.4449 182.996 41.5054C182.996 34.566 177.792 28.9404 171.373 28.9404C164.954 28.9404 159.75 34.566 159.75 41.5054C159.75 48.4449 164.954 54.0704 171.373 54.0704Z" fill="url(#paint5_linear_1150_1786)" stroke="#353535" stroke-width="1.5768" stroke-miterlimit="10" stroke-linecap="round"/>
<path d="M214.457 72.9894C225.709 72.9894 234.83 63.1285 234.83 50.9645C234.83 38.8004 225.709 28.9395 214.457 28.9395C203.205 28.9395 194.084 38.8004 194.084 50.9645C194.084 63.1285 203.205 72.9894 214.457 72.9894Z" fill="url(#paint6_linear_1150_1786)"/>
<path d="M214.457 54.0704C220.876 54.0704 226.08 48.4449 226.08 41.5054C226.08 34.566 220.876 28.9404 214.457 28.9404C208.038 28.9404 202.834 34.566 202.834 41.5054C202.834 48.4449 208.038 54.0704 214.457 54.0704Z" fill="url(#paint7_linear_1150_1786)" stroke="#353535" stroke-width="1.5768" stroke-miterlimit="10" stroke-linecap="round"/>
<path d="M150 10.1193C150 10.1193 152.077 3.2463 164.906 2.2783C177.735 1.3113 181.556 7.7393 181.556 7.7393" stroke="#353535" stroke-width="3" stroke-miterlimit="10" stroke-linecap="round"/>
<path d="M195.425 7.10835C195.425 7.10835 198.762 0.751347 211.542 2.22035C224.323 3.69135 226.862 10.7254 226.862 10.7254" stroke="#353535" stroke-width="3" stroke-miterlimit="10" stroke-linecap="round"/>
<defs>
<linearGradient id="paint0_linear_1150_1786" x1="188.5" y1="14.4912" x2="188.5" y2="241.491" gradientUnits="userSpaceOnUse">
<stop stop-color="#F6BF7D"/>
<stop offset="1" stop-color="#FFAD7A"/>
</linearGradient>
<linearGradient id="paint1_linear_1150_1786" x1="126.494" y1="60.325" x2="127.064" y2="80.0005" gradientUnits="userSpaceOnUse">
<stop stop-color="#EF6287"/>
<stop offset="1" stop-color="#EE567E"/>
</linearGradient>
<linearGradient id="paint2_linear_1150_1786" x1="263.464" y1="58.6682" x2="264.954" y2="86.4792" gradientUnits="userSpaceOnUse">
<stop stop-color="#EF6287"/>
<stop offset="1" stop-color="#EE567E"/>
</linearGradient>
<linearGradient id="paint3_linear_1150_1786" x1="263.548" y1="58.1396" x2="263.564" y2="79.5005" gradientUnits="userSpaceOnUse">
<stop stop-color="#E24072"/>
<stop offset="1" stop-color="#E0356A"/>
</linearGradient>
<linearGradient id="paint4_linear_1150_1786" x1="171.373" y1="28.9395" x2="171.373" y2="72.9894" gradientUnits="userSpaceOnUse">
<stop stop-color="white"/>
<stop offset="1" stop-color="#F5F5F5"/>
</linearGradient>
<linearGradient id="paint5_linear_1150_1786" x1="171.373" y1="28.9404" x2="171.373" y2="54.0704" gradientUnits="userSpaceOnUse">
<stop stop-color="#353535"/>
<stop offset="1" stop-color="#383838"/>
</linearGradient>
<linearGradient id="paint6_linear_1150_1786" x1="214.457" y1="28.9395" x2="214.457" y2="72.9894" gradientUnits="userSpaceOnUse">
<stop stop-color="white"/>
<stop offset="1" stop-color="#F5F5F5"/>
</linearGradient>
<linearGradient id="paint7_linear_1150_1786" x1="214.457" y1="28.9404" x2="214.457" y2="54.0704" gradientUnits="userSpaceOnUse">
<stop stop-color="#353535"/>
<stop offset="1" stop-color="#383838"/>
</linearGradient>
</defs>
</svg>
