<svg width="154" height="152" viewBox="0 0 154 152" fill="none" xmlns="http://www.w3.org/2000/svg">
<path d="M151.234 62.6067C157.707 101.64 122.326 151.102 76.3015 150.421C35.3196 149.814 -0.019186 117.142 2.0898 76.2116C4.24779 34.3458 35.3156 2 76.3015 2C124.194 2 144.531 22.1739 151.234 62.6067Z" fill="#F7E874" stroke="#363636" stroke-width="3.12494" stroke-miterlimit="10"/>
<path d="M48.3303 64.4029C47.6113 67.2078 41.7943 68.6468 32.5814 68.6468C23.3664 68.6468 18.2725 67.2378 18.2725 64.4029C18.2725 61.5679 23.5214 59.6569 32.0044 59.9469C41.3533 60.2669 49.0343 61.6569 48.3303 64.4029Z" fill="#F8A0B3"/>
<path d="M108.062 64.1637C108.78 61.3587 114.598 59.9167 123.811 59.9167C133.027 59.9167 138.12 61.3247 138.12 64.1637C138.12 66.9947 132.872 68.9097 124.387 68.6197C115.04 68.2967 107.358 66.9077 108.062 64.1637Z" fill="#F8A0B3"/>
<path d="M31.4297 62.4078C31.4297 62.4078 31.1437 47.7198 48.6886 46.5008C48.6886 46.5008 62.2056 45.8838 66.2336 58.3018" stroke="#363636" stroke-width="4.46418" stroke-miterlimit="10" stroke-linecap="round" stroke-linejoin="bevel"/>
<path d="M89.0239 57.9818C89.0239 57.9818 90.0919 42.5668 107.628 44.8958C107.628 44.8958 120.724 45.1858 122.827 59.9297" stroke="#363636" stroke-width="4.46418" stroke-miterlimit="10" stroke-linecap="round" stroke-linejoin="bevel"/>
<path d="M94.6695 84.1756H122.939C122.939 84.1756 117.21 112.065 77.0316 110.926C36.3708 109.787 33.1948 84.1756 33.1948 84.1756H67.4367H94.6695Z" fill="#C68D3C"/>
<path d="M33.1948 84.1756H67.4367H94.6705H122.94C122.94 84.1756 117.211 112.065 77.0326 110.926C36.3708 109.787 33.1948 84.1756 33.1948 84.1756Z" stroke="#363636" stroke-width="3.12494" stroke-miterlimit="10"/>
<path d="M61.3457 84.1786C61.3457 89.6256 69.6407 88.6856 76.8776 88.9246C77.8086 88.9076 92.4116 89.5986 92.4116 84.1786" fill="white"/>
<path d="M61.3457 84.1786C61.3457 89.6256 69.6407 88.6856 76.8776 88.9246C77.8086 88.9076 92.4116 89.5986 92.4116 84.1786" stroke="#363636" stroke-width="2.23215" stroke-miterlimit="10"/>
</svg>
